HIERARCHY
ROOT ui
{
	 OFFSET 0 0 0
	 CHANNELS 3 XPosition YPosition Z Position
	 EndSite
	 {
	 OFFSET 0 -1 0
	 }
}
ROOT li
{
	 OFFSET 0 0 0
	 CHANNELS 3 XPosition YPosition Z Position
	 EndSite
	 {
	 OFFSET 0 -1 0
	 }
}
ROOT ul
{
	 OFFSET 0 0 0
	 CHANNELS 3 XPosition YPosition Z Position
	 EndSite
	 {
	 OFFSET 0 -1 0
	 }
}
ROOT ll
{
	 OFFSET 0 0 0
	 CHANNELS 3 XPosition YPosition Z Position
	 EndSite
	 {
	 OFFSET 0 -1 0
	 }
}
ROOT tt
{
	 OFFSET 0 0 0
	 CHANNELS 3 XPosition YPosition Z Position
	 EndSite
	 {
	 OFFSET 0 -1 0
	 }
}
ROOT tb
{
	 OFFSET 0 0 0
	 CHANNELS 3 XPosition YPosition Z Position
	 EndSite
	 {
	 OFFSET 0 -1 0
	 }
}
ROOT td
{
	 OFFSET 0 0 0
	 CHANNELS 3 XPosition YPosition Z Position
	 EndSite
	 {
	 OFFSET 0 -1 0
	 }
}
ROOT v
{
	 OFFSET 0 0 0
	 CHANNELS 3 XPosition YPosition Z Position
	 EndSite
	 {
	 OFFSET 0 -1 0
	 }
}
ROOT bn
{
	 OFFSET 0 0 0
	 CHANNELS 3 XPosition YPosition Z Position
	 EndSite
	 {
	 OFFSET 0 -1 0
	 }
}
MOTION
Frames: 27
Frame Time: 0.002
0.028782711029052735	0.004109237194061279	0		0.4690455017089844	-2.388799072265625	0		-1.1113973388671874	-0.12700688171386718	0		-0.6294361572265625	-2.32426953125	0		1.940432861328125	-1.1975157470703126	0		3.367502685546875	-0.5038666687011719	0		4.590509765625	-0.1624610137939453	0		5.67908251953125	0.11762294006347657	0		-0.42366064453125	5.83525244140625	0		
0.02176518440246582	-0.0027672948837280274	0		0.4951050415039063	-2.390955078125	0		-1.0413985595703126	-0.13256686401367188	0		-0.6402809448242187	-2.315121826171875	0		1.935432861328125	-1.204381591796875	0		3.381543701171875	-0.5048764343261719	0		4.5875029296875	-0.16830548095703124	0		5.68696044921875	0.11770865631103515	0		-0.43780648803710936	5.82343017578125	0		
-0.05518028259277344	-0.0010477960109710692	0		0.4483307189941406	-2.37348876953125	0		-1.11534228515625	-0.13088841247558594	0		-0.6402050170898438	-2.3150771484375	0		1.9433111572265624	-1.225368896484375	0		3.369490478515625	-0.5166705322265625	0		4.59435791015625	-0.190246337890625	0		5.67622705078125	0.09913562774658204	0		-0.40380435180664065	5.82818359375	0		
0.021842039108276368	-0.002668812036514282	0		0.4692669372558594	-2.388619140625	0		-1.1112723388671875	-0.12689418029785157	0		-0.7120762939453125	-2.307420654296875	0		1.952326904296875	-1.2293753662109375	0		3.38048779296875	-0.5216746826171875	0		4.60932470703125	-0.19826800537109374	0		5.681166015625	0.0767529067993164	0		-0.42281552124023436	5.83238623046875	0		
-0.03815495300292969	-0.004116922855377197	0		0.47235928344726563	-2.3836044921875	0		-1.101270263671875	-0.12896038818359376	0		-0.6210830688476563	-2.314179443359375	0		1.9613262939453124	-1.2333927001953124	0		3.410322021484375	-0.5438534545898438	0		4.6023974609375	-0.1921128692626953	0		5.68771142578125	0.1079456787109375	0		-0.4208914794921875	5.83039794921875	0		
0.028918561935424806	0.004330634117126465	0		0.49734295654296873	-2.388788818359375	0		-1.1072269287109375	-0.12389750671386719	0		-0.7049412841796875	-2.300439697265625	0		1.956288330078125	-1.239300537109375	0		3.389491455078125	-0.52460693359375	0		4.62527685546875	-0.20622914123535158	0		5.6877119140625	0.10810839080810547	0		-0.4559973449707031	5.82671875	0		
-0.055152454376220704	-9.31141972541809E-4	0		0.46733062744140624	-2.390509765625	0		-1.111273681640625	-0.12685940551757813	0		-0.6330013427734374	-2.30805029296875	0		1.9542452392578125	-1.2432459716796875	0		3.386191162109375	-0.55752685546875	0		4.61120556640625	-0.21204197692871093	0		5.68769775390625	0.10824330902099609	0		-0.43612759399414064	5.82155810546875	0		
0.021793542861938478	-0.0025855019092559813	0		0.46731082153320314	-2.390498046875	0		-1.1113150634765625	-0.12686285400390626	0		-0.67000341796875	-2.305731689453125	0		1.9491630859375	-1.249177001953125	0		3.40608447265625	-0.5656588745117187	0		4.62304443359375	-0.22609339904785156	0		5.68404736328125	0.09285379028320312	0		-0.4362256774902344	5.82156103515625	0		
-0.0552533073425293	-9.259399771690368E-4	0		0.46727145385742186	-2.390495361328125	0		-1.111372314453125	-0.12687261962890625	0		-0.6231395263671875	-2.317140625	0		1.961985595703125	-1.2642735595703125	0		3.41789306640625	-0.5817352294921875	0		4.6228505859375	-0.2420572052001953	0		5.6797822265625	0.10858795928955078	0		-0.43633001708984376	5.821556640625	0		
0.02872943115234375	0.0043452420234680175	0		0.4692376708984375	-2.38851806640625	0		-1.10741162109375	-0.12392221069335937	0		-0.6921026000976562	-2.306561767578125	0		1.9688675537109375	-1.2713294677734375	0		3.416916748046875	-0.5717142333984375	0		4.6327861328125	-0.24212271118164064	0		5.69117919921875	0.11704634094238281	0		-0.42135498046875	5.83041650390625	0		
0.025633172988891603	3.5624998807907103E-4	0		0.4931421508789062	-2.393736328125	0		-1.037510009765625	-0.1285414276123047	0		-0.6212173461914062	-2.314187744140625	0		1.972716552734375	-1.282369873046875	0		3.42370263671875	-0.5897738037109375	0		4.63865625	-0.2501688537597656	0		5.6940615234375	0.1377625732421875	0		-0.43552728271484376	5.82052001953125	0		
0.02155838966369629	-0.002630462884902954	0		0.4650993347167969	-2.3935166015625	0		-1.111547607421875	-0.12693120574951172	0		-0.6232869873046875	-2.31719287109375	0		1.972670166015625	-1.282386474609375	0		3.462593505859375	-0.5971209716796875	0		4.64643603515625	-0.270247314453125	0		5.69402685546875	0.13774810791015624	0		-0.4355896301269531	5.820498046875	0		
0.02152629470825195	-0.0026574130058288573	0		0.4880064392089844	-2.400740234375	0		-1.0475821533203125	-0.1275062484741211	0		-0.6293787841796875	-2.324168212890625	0		1.9675869140625	-1.2883704833984375	0		3.416537353515625	-0.5997538452148438	0		4.64640380859375	-0.27027423095703124	0		5.698923828125	0.11683856201171874	0		-0.4297590026855469	5.80442041015625	0		
0.02150985908508301	-0.002689502000808716	0		0.46302783203125	-2.3955595703125	0		-1.1115965576171876	-0.12698744201660156	0		-0.6554428100585937	-2.328975830078125	0		1.9804383544921875	-1.3035181884765625	0		3.419407958984375	-0.612819580078125	0		4.641318359375	-0.278274658203125	0		5.68322021484375	0.11708485412597656	0		-0.43464093017578126	5.818431640625	0		
0.02856178092956543	0.004214244842529297	0		0.4670502014160156	-2.39063232421875	0		-1.107579345703125	-0.12405190277099609	0		-0.6514287109375	-2.325042724609375	0		1.991414794921875	-1.30465869140625	0		3.44731884765625	-0.622113037109375	0		4.65522314453125	-0.2884544372558594	0		5.69466259765625	0.12711397552490233	0		-0.41953314208984377	5.82826904296875	0		
-0.04843774795532227	0.005836240768432617	0		0.46499371337890627	-2.3936572265625	0		-1.1145482177734376	-0.11902122497558594	0		-0.6106148681640625	-2.3434267578125	0		1.984307373046875	-1.314653076171875	0		3.446388427734375	-0.6121717529296875	0		4.65722705078125	-0.2865486755371094	0		5.6946533203125	0.12696622467041016	0		-0.46763128662109377	5.812646484375	0		
0.025488962173461915	1.6112199425697327E-4	0		0.487877197265625	-2.400900146484375	0		-1.041691650390625	-0.132675048828125	0		-0.6276520385742187	-2.341313720703125	0		1.9881697998046874	-1.325750244140625	0		3.4430703125	-0.6452250366210938	0		4.6690751953125	-0.3007455749511719	0		5.69885595703125	0.11112403869628906	0		-0.43454095458984376	5.818328125	0		
-0.05558142852783203	-0.0011838200092315675	0		0.45879421997070313	-2.39969970703125	0		-1.115738525390625	-0.13106413269042969	0		-0.5899172973632812	-2.36167236328125	0		2.0020240478515623	-1.3339425048828124	0		3.443004150390625	-0.645319091796875	0		4.6708935546875	-0.3148749694824219	0		5.69458935546875	0.12656139373779296	0		-0.4345087585449219	5.81829296875	0		
0.02533955192565918	7.468300312757492E-5	0		0.48562890625	-2.40298486328125	0		-1.115834228515625	-0.1310869140625	0		-0.617123046875	-2.369471923828125	0		1.9937593994140625	-1.350954345703125	0		3.51338720703125	-0.7050379638671875	0		4.672673828125	-0.32902346801757815	0		5.6945205078125	0.12630084228515626	0		-0.43350106811523437	5.8172490234375	0		
-0.05278408813476562	0.0017024400234222413	0		0.4584664001464844	-2.399808837890625	0		-1.11193798828125	-0.12714266204833985	0		-0.5494007568359375	-2.380091796875	0		2.0185235595703124	-1.359261474609375	0		3.45962744140625	-0.6596981201171875	0		4.6786259765625	-0.3182274475097656	0		5.7058623046875	0.13440985107421874	0		-0.43449627685546877	5.81822119140625	0		
0.02502586555480957	-2.172599919140339E-5	0		0.4831802978515625	-2.40508642578125	0		-1.042165771484375	-0.1327693328857422	0		-0.5817536010742187	-2.39284814453125	0		2.0162745361328125	-1.36334619140625	0		3.46323193359375	-0.6828722534179688	0		4.68726513671875	-0.3384771728515625	0		5.69719140625	0.13943547058105468	0		-0.434521240234375	5.81818359375	0		
-0.05318202209472656	0.0016040979623794555	0		0.45187173461914065	-2.406883544921875	0		-1.042389404296875	-0.13279014587402344	0		-0.5561683959960938	-2.40710888671875	0		2.0358824462890626	-1.378633056640625	0		3.48002587890625	-0.6791775512695313	0		4.6770361328125	-0.3385843505859375	0		5.71340966796875	0.13178175354003907	0		-0.43357345581054685	5.8171357421875	0		
0.020525423049926758	-0.0030970730781555177	0		0.4764898986816406	-2.412173828125	0		-1.0507095947265626	-0.13974075317382811	0		-0.5655839233398438	-2.416067138671875	0		2.014563720703125	-1.3805755615234374	0		3.474564453125	-0.70030859375	0		4.688646484375	-0.3529051818847656	0		5.70960693359375	0.11758297729492187	0		-0.40056930541992186	5.82380517578125	0		
-0.05371725845336914	0.0014902089834213257	0		0.47791497802734373	-2.43527001953125	0		-1.1169227294921875	-0.13118280029296875	0		-0.5501682739257813	-2.440246337890625	0		2.03200146484375	-1.40687109375	0		3.4801865234375	-0.7085553588867187	0		4.6873349609375	-0.35513729858398435	0		5.710095703125	0.11189469146728516	0		-0.43368682861328123	5.81704931640625	0		
0.04188915252685547	-0.010420411109924317	0		0.48846484375	-2.441453857421875	0		-1.1091597900390624	-0.12427260589599609	0		-0.5436802368164062	-2.453350830078125	0		2.0367012939453124	-1.4010687255859375	0		3.5156767578125	-0.730087158203125	0		4.69194775390625	-0.36444760131835935	0		5.71640576171875	0.14063095092773437	0		-0.45170443725585935	5.82015966796875	0		
0.026722978591918946	0.003638269901275635	0		0.4753167724609375	-2.4124345703125	0		-1.0394942626953125	-0.12891255187988282	0		-0.49617709350585937	-2.463822021484375	0		2.0562109375	-1.4164134521484375	0		3.489503662109375	-0.7130951538085938	0		4.6916396484375	-0.36474105834960935	0		5.71619189453125	0.14004084777832032	0		-0.4337471923828125	5.81694970703125	0		
0.023411617279052735	-4.123220145702362E-4	0		0.5065483703613282	-2.453819091796875	0		-1.047839111328125	-0.1358629913330078	0		-0.5337492065429688	-2.48254150390625	0		2.048772216796875	-1.42653369140625	0		3.4980029296875	-0.73443212890625	0		4.69524658203125	-0.3760963439941406	0		5.7130771484375	0.12388880920410156	0		-0.4006596374511719	5.8236015625	0		
